inDegrees=no
num_controls=7
num_derivatives=13
num_iterations=517
num_multipliers=7
num_parameters=0
num_slacks=7
num_states=26
objective=4.012800
objective_accelerations=0.547915
objective_balance=0.104071
objective_effort=0.468394
objective_height=2.842461
objective_ligament=0.049959
solver_duration=9703.023946
status=User_Requested_Stop
success=false
DataType=double
version=3
OpenSimVersion=4.4-2022-07-23-0e9fedc
endheader
time	/jointset/ground_pelvis/pelvis_tilt/value	/jointset/ground_pelvis/pelvis_tx/value	/jointset/ground_pelvis/pelvis_ty/value	/jointset/hip_l/hip_flexion_l/value	/jointset/hip_l/hip_adduction_l/value	/jointset/hip_l/hip_rotation_l/value	/jointset/back/lumbar_extension/value	/jointset/patellofemoral_l/patellar_flexion_l/value	/jointset/knee_l/knee_flexion_l/value	/jointset/knee_l/knee_adduction_l/value	/jointset/knee_l/knee_rotation_l/value	/jointset/ankle_l/ankle_angle_l/value	/jointset/subtalar_l/subtalar_angle_l/value	/jointset/ground_pelvis/pelvis_tilt/speed	/jointset/ground_pelvis/pelvis_tx/speed	/jointset/ground_pelvis/pelvis_ty/speed	/jointset/hip_l/hip_flexion_l/speed	/jointset/hip_l/hip_adduction_l/speed	/jointset/hip_l/hip_rotation_l/speed	/jointset/back/lumbar_extension/speed	/jointset/patellofemoral_l/patellar_flexion_l/speed	/jointset/knee_l/knee_flexion_l/speed	/jointset/knee_l/knee_adduction_l/speed	/jointset/knee_l/knee_rotation_l/speed	/jointset/ankle_l/ankle_angle_l/speed	/jointset/subtalar_l/subtalar_angle_l/speed	/forceset/tau_hip_flexion_l	/forceset/tau_hip_adduction_l	/forceset/tau_hip_rotation_l	/forceset/tau_knee_flexion_l	/forceset/tau_ankle_angle_l	/forceset/tau_subtalar_angle_l	/forceset/tau_lumbar_extension	lambda_cid13_p0	lambda_cid13_p1	lambda_cid13_p2	lambda_cid13_p3	lambda_cid13_p4	lambda_cid13_p5	lambda_cid14_p0	/jointset/ground_pelvis/pelvis_tilt/accel	/jointset/ground_pelvis/pelvis_tx/accel	/jointset/ground_pelvis/pelvis_ty/accel	/jointset/hip_l/hip_flexion_l/accel	/jointset/hip_l/hip_adduction_l/accel	/jointset/hip_l/hip_rotation_l/accel	/jointset/back/lumbar_extension/accel	/jointset/patellofemoral_l/patellar_flexion_l/accel	/jointset/knee_l/knee_flexion_l/accel	/jointset/knee_l/knee_adduction_l/accel	/jointset/knee_l/knee_rotation_l/accel	/jointset/ankle_l/ankle_angle_l/accel	/jointset/subtalar_l/subtalar_angle_l/accel	gamma_cid13_p0	gamma_cid13_p1	gamma_cid13_p2	gamma_cid13_p3	gamma_cid13_p4	gamma_cid13_p5	gamma_cid14_p0
0	-0.16016718028357	0.05857453077541835	0.8979987511012565	0.3774920279260975	-0.2591370387957129	-0.272967440535884	-0.0126506700172305	0.03223623132354802	0.03223623128433527	-0.1745326378382993	0.1745244946823014	-0.04231376238535053	-0.009261504571588378	0	0	0	0	0	0	0	0	0	0	0	0	0	0.165926910462165	-0.1062878933609934	-0.05797196622276349	-0.3530966240564183	0.4044488788580863	-0.04958155534936066	-0.1016472821693885	88.70952245300219	0.4618977898372954	5.850785831140377	-42.43937706655696	-582.6702003198225	-79.74842314006226	-39.07567989511645	-3.270933640129607	-1.409713688767576	-1.141328377374306	13.51115405705	-1.376926732366442	5.005364352480794	-5.905218071699588	14.20648291995608	14.20648291999063	1.29176573056033	-0.01396387103130311	4.586001306204435	-0.3657387548588574	-1.983848084309739e-07	2.101546740000562e-07	3.153224290578899e-07	1.271735233642546e-07	3.652626759201147e-08	-3.231659459611079e-07	-4.187512067272237e-08
0.01	-0.1603235783861716	0.05850463544324143	0.8979431052325227	0.3781512890859193	-0.2592041680298425	-0.2727166538667336	-0.01294811672066533	0.03293200658694089	0.03293200666203388	-0.1744681090488335	0.174518352474867	-0.04208950229913542	-0.009279270010465881	-0.03109041852448839	-0.01395391921518592	-0.0110937629439346	0.1313138251312105	-0.01325811360856467	0.04986176074166345	-0.05916269693871106	0.1385918722328339	0.1385918722321951	0.01302396778758893	-0.001154332384201633	0.04465429737075564	-0.003434863718043896	0.15874000157836	-0.1133492645249132	-0.05628463960524867	-0.3429251149651281	0.3873443487883892	-0.03584764642924176	-0.09617665108048627	83.66591382453818	-4.403883318721004	6.380072304814191	-39.21661066571722	-583.9534665678009	-88.80054260268788	-39.09511224702611	-2.999723272983848	-1.384445332652961	-1.088081745052366	12.86071746706599	-1.275199248896745	4.932212372739487	-5.872792238913333	13.60106963381112	13.60106963283348	1.325535687632621	-0.155078769696598	4.375448690011313	-0.3146975344526882	-1.771381201363132e-07	4.375071083864507e-07	2.4796034860401e-07	1.325632265738541e-07	-1.474217792985202e-07	-1.173608058870046e-07	-1.077522200346664e-08
0.02	-0.1607852062348291	0.05829595804917674	0.8977775854325877	0.3801075325840826	-0.2593988675176421	-0.2719761235929243	-0.0138273897762924	0.03499680677147007	0.03499680682620158	-0.1742697760339366	0.1745028847614616	-0.04142463830055527	-0.009327851571230219	-0.06104592928252257	-0.02775641237748983	-0.02197478698292155	0.259396479047285	-0.02551405037957364	0.09794873902763787	-0.1163652628417012	0.2738049548016819	0.2738049548002003	0.02676087094899818	-0.001865098665610647	0.08812078417036839	-0.006163221649794018	0.1515530931352945	-0.1204106352145462	-0.05459731333771668	-0.3327536052764084	0.370239819134735	-0.02211373694995033	-0.09070602000380666	78.7448630256998	-9.287087229458576	6.907539209618641	-36.30803954814559	-583.4545719047461	-97.65904743980843	-39.15255662875681	-3.043952082618912	-1.379428482410504	-1.09878059652603	12.8649198149803	-1.176491365315972	4.650407860984754	-5.513191862289323	13.53072498757101	13.53072498756396	1.434352804514341	0.07474934982496638	4.348439186743309	-0.2244375992862331	-1.558914318416525e-07	6.648595427728453e-07	1.805982681501301e-07	1.379529297834535e-07	-3.313698261890519e-07	8.844433418709863e-08	2.032467666578909e-08
0.03	-0.1615410390964962	0.05795073902057882	0.8975039321353445	0.3833272972164661	-0.2597119509997424	-0.2707642132507228	-0.01526644434580867	0.03839611781199321	0.0383961179340301	-0.1739332318261374	0.1744827969339658	-0.04033088277875803	-0.00940103445659567	-0.08992609128719661	-0.0411879235370855	-0.03275088024399689	0.3838413717483419	-0.03702578916754729	0.1441451779919191	-0.1709145273441571	0.4053818876256167	0.405381887622444	0.04038792350894006	-0.002128198274757291	0.1304388597931935	-0.008449299140961758	0.1432748099438692	-0.1122480966268204	-0.0530557648972972	-0.3233650958245934	0.3583839398363151	-0.02390396945996633	-0.0841207238662387	74.88669492409807	-7.991451228646943	6.880762662066482	-34.19331397110311	-583.2949914469585	-93.60441903598586	-39.24586526730052	-2.780866908700206	-1.310076067160663	-1.066342300574981	12.12699441011446	-1.127101248662786	4.561037153453688	-5.346118935713434	12.86986777684547	12.86986777578202	1.303001708962213	-0.07318766765190048	4.144752741567716	-0.2272121070053122	-1.887947795851416e-07	6.068619398480449e-07	2.704646352364864e-07	1.702430898192203e-07	-5.272512575859966e-07	3.901091409213419e-08	4.123457514906289e-09
0.04	-0.162579837378867	0.05747419214375161	0.8971226541808592	0.3877700548152545	-0.2601378690861268	-0.2690989835112089	-0.01723505662532778	0.04309093636410304	0.04309093641574251	-0.1734651930697516	0.1744608084423492	-0.03881969430338266	-0.009496381984363261	-0.1176389989017	-0.05402198202329003	-0.04349971917379087	0.5039950807544862	-0.04808097261391635	0.1886126265647309	-0.2222767991378562	0.5329064343116299	0.5329064343068469	0.05305978512207665	-0.002245219942497735	0.171607375004962	-0.01059614800102521	0.1349965269579655	-0.1040855578083377	-0.05151421676691456	-0.3139765860631321	0.3465280607436364	-0.02569420169649642	-0.07753542773905528	71.13996522449614	-6.705959866041617	6.844912543715994	-32.37264629466174	-581.535811354341	-89.36405376960579	-39.37218956464316	-2.810501200314063	-1.259937951916069	-1.093329730412621	12.006683077019	-1.085180297388793	4.30460978242879	-4.875793318252668	12.72024776037962	12.72024776039057	1.24331461446101	0.1039649382789857	4.1185270993532	-0.1965918746895146	-2.228146229170462e-07	5.429808309993023e-07	3.635728259834662e-07	2.030878984493411e-07	-7.23378738148022e-07	-1.568515672796576e-08	-1.305304241577319e-08
0.05	-0.1638907500686822	0.05687166616245652	0.8966335057349547	0.3933957792596772	-0.2606717832117172	-0.2669979730714315	-0.01970343293408155	0.04904264951414072	0.04904264964032996	-0.1728748557539324	0.1744390739824571	-0.03690261047082832	-0.009612305400458175	-0.1443749830928259	-0.06644252443777397	-0.0543646191390709	0.6206080423290274	-0.05858853113572902	0.2313528057949077	-0.2711318706029478	0.6568490768049415	0.6568490768005142	0.06489377803803394	-0.002114462290990342	0.2115823689475788	-0.01254313600382443	0.1281891819454576	-0.1005577227217848	-0.0500936398027357	-0.306563647731545	0.334785063212908	-0.02326704110667585	-0.07240642142574705	67.57879464268505	-7.163328769716008	6.948424949922211	-30.15114976759022	-579.655601086965	-88.83873835173414	-39.52788550656612	-2.579860420399633	-1.22697968835057	-1.088414209000106	11.40731673189665	-1.016652612020472	4.223185060062256	-4.850369327302324	12.14320680018538	12.1432067994867	1.136482873972117	-0.03431591915656231	3.902908313000895	-0.1870707675852197	-2.343010828675636e-07	4.562570010054004e-07	4.253690674150726e-07	2.118525823591359e-07	-8.195116353554377e-07	-6.132369846599131e-08	-2.717652356999595e-08
0.06	-0.1654639653419049	0.05614616128744378	0.8960346394726076	0.400171376083263	-0.2613073947217157	-0.2644766682565907	-0.02265236103202762	0.05621617606445414	0.05621617611615286	-0.1721695702820547	0.1744182576236064	-0.03459259214625383	-0.009746362405096933	-0.1700995026395613	-0.07861776076677147	-0.06544328320419703	0.7339695651010105	-0.06842044908122374	0.2726715077380005	-0.3183871523923731	0.7772690915425948	0.7772690915384409	0.0760494206745617	-0.002061588556073373	0.2501942736762539	-0.01422286423221054	0.1213818371060281	-0.09702988740571798	-0.04867306317962336	-0.2991507091139439	0.3230420658774497	-0.02083988024544202	-0.06727741513689138	64.11490297848671	-7.631603674418399	7.046684228971761	-28.1906696144903	-576.3742710916257	-88.15762536517833	-39.70897311902816	-2.608208267207972	-1.210876738979269	-1.13608255052975	11.35639531756111	-0.950052182457644	4.020314324842585	-4.555835380875697	12.01572220964295	12.01572220963627	1.107644557994401	0.0883881550226555	3.845909251430705	-0.1431399213738518	-2.448387687809699e-07	3.685713722264392e-07	4.858469109807685e-07	2.196033662807065e-07	-9.114342343163435e-07	-1.065808705584558e-07	-4.117145656520998e-08
0.07000000000000001	-0.1672897149404243	0.05530072345979588	0.8953237333003095	0.4080640478900786	-0.2620376409642245	-0.2615505751502631	-0.02606331692707342	0.06457641079449931	0.06457641092554613	-0.1713560993073857	0.17439877617633	-0.03190255290924734	-0.009895433684928141	-0.194860068500859	-0.09036669036588896	-0.0767798424078516	0.8438909487517128	-0.07748118417732662	0.3122650721922122	-0.3633438090419726	0.8941208131275428	0.8941208131221361	0.08653985270341227	-0.001834855248328142	0.2876350987958249	-0.01550311807612001	0.1131246275095523	-0.09199874886598829	-0.04716026589691583	-0.2916587493999444	0.3118921957079946	-0.01926479729971599	-0.06077794641346806	60.77074043008218	-7.765407114328248	7.108316362281817	-26.68084489557847	-573.9708350778125	-86.61935488853032	-39.91085666194186	-2.381422047536357	-1.141401515749782	-1.138910159721239	10.70891165513725	-0.862031923280276	3.886505274546047	-4.396542487751422	11.42134884077667	11.42134883991066	1.00411392853302	-0.01026785462490277	3.666373163083596	-0.1073417348617733	-2.420618480915326e-07	2.496343017093272e-07	5.052456118236712e-07	2.19340219485847e-07	-9.50282423831106e-07	-1.463431892237414e-07	-5.148621331290813e-08
0.08	-0.1693573585108688	0.05434089623859018	0.8944981680258933	0.4170357138459541	-0.2628540841183821	-0.2582370208629393	-0.02991003174044832	0.07408545319036478	0.07408545324303986	-0.1704408497385539	0.1743815452515239	-0.02884346461853165	-0.01005468223171139	-0.2184782861541466	-0.1014956394782724	-0.08837510436902499	0.9497684029102808	-0.08565982938506493	0.3501637474476582	-0.4055389326048959	1.007030603023677	1.007030603017082	0.09640514082644709	-0.001611472880799391	0.3240040846897099	-0.01625831672095404	0.1048674180282148	-0.08696761013554517	-0.04564746895944828	-0.2841667894639237	0.3007423256929374	-0.0176897141289626	-0.05427847772238117	57.50949488870579	-7.906230293492997	7.162506695159126	-25.40303737315308	-570.3848380680729	-84.94746105334011	-40.12856883916419	-2.379738621475399	-1.086880645779275	-1.18782310218953	10.54760942020266	-0.7736342050662612	3.681336485012414	-4.003528761376605	11.22733587228619	11.22733587228683	0.982615776348149	0.08771796694891264	3.631541401191468	-0.03812888307644088	-2.384259205244925e-07	1.286810091445928e-07	5.219940453941354e-07	2.185600449028306e-07	-9.857064578977302e-07	-1.857510012163057e-07	-6.156353933496008e-08
